<svg width="49" height="45" viewBox="0 0 49 45" fill="none" xmlns="http://www.w3.org/2000/svg">
<path d="M13.8331 14.21L28.0564 28.4203H0L13.8331 14.21Z" fill="#B5E0FF"/>
<rect y="28.4209" width="6.32258" height="16.5787" fill="#B5E0FF"/>
<rect x="21.7354" y="28.4213" width="6.32258" height="16.5787" fill="#B5E0FF"/>
<rect x="10.2734" y="39.4734" width="7.50806" height="5.52625" fill="#B5E0FF"/>
<rect x="32.7979" y="38.6839" width="16.2016" height="6.31571" fill="#B5E0FF"/>
<rect x="32.7979" y="22.8952" width="16.2016" height="6.31571" fill="#B5E0FF"/>
<rect x="15.8057" width="33.1935" height="5.13151" fill="#B5E0FF"/>
<rect x="15.8057" y="5.13055" width="33.1935" height="4.73678" fill="#B5E0FF"/>
<rect x="16.8936" y="5.62497" width="5.63108" height="4.8214" fill="#B5E0FF"/>
<path d="M19.1592 6.71116L36.5451 24.0781L33.192 27.4275L15.8105 9.83768L16.0291 9.83784L19.1592 6.71116Z" fill="#B5E0FF"/>
<rect x="49" y="9.86847" width="13.0261" height="4.74193" transform="rotate(90 49 9.86847)" fill="#B5E0FF"/>
<rect x="34.3789" y="9.47324" width="13.0261" height="3.95161" transform="rotate(90 34.3789 9.47324)" fill="#B5E0FF"/>
<rect x="26.0811" y="14.21" width="20.5484" height="4.34205" fill="#B5E0FF"/>
<rect x="33.9844" y="9.47324" width="13.4355" height="13.4209" fill="#B5E0FF"/>
<rect x="44.2578" y="28.4213" width="4.74193" height="11.0525" fill="#B5E0FF"/>
<rect x="32.7979" y="29.2106" width="13.0403" height="11.0525" fill="#B5E0FF"/>
<rect x="22.5244" y="7.89426" width="7.90322" height="7.89464" fill="#FAF9F6"/>
<rect x="35.5645" y="7.89436" width="7.90322" height="7.89464" fill="#FAF9F6"/>
<rect x="35.5645" y="30.7896" width="7.90322" height="7.89464" fill="#FAF9F6"/>
<rect x="6.32227" y="28.4209" width="15.4113" height="6.71044" fill="#B5E0FF"/>
</svg>
