<svg width="45" height="45" viewBox="0 0 45 45" fill="none" xmlns="http://www.w3.org/2000/svg">
<path d="M1.60609 9.66581e-05C0.724276 1.34506 0.506869 2.99718 0.847583 4.9051C1.25377 7.18033 2.48297 9.74434 4.25956 12.1584C7.81292 16.9868 13.5487 21.1605 18.6514 21.7933L19.0081 21.8388L19.2378 22.1138L38.0148 44.7805C39.8863 45.2277 41.0947 44.9493 41.7231 44.3269C42.3562 43.6998 42.6482 42.4889 42.1793 40.5674L1.60628 0L1.60609 9.66581e-05ZM37.879 0.223693L27.3858 10.7169C26.2253 11.8772 26.2152 13.154 26.8145 14.549L27.0623 15.1264L26.6089 15.5616L23.0851 18.9222L25.9472 21.7842L29.2928 18.2512L29.728 17.7918L30.3052 18.0426C31.7718 18.6747 33.1626 18.6487 34.2401 17.5712L44.7333 7.07801L43.3703 5.71496L36.546 12.5362L35.2707 11.258L42.0917 4.43692L40.6382 2.98286L33.8171 9.8041L32.5386 8.52577L39.3596 1.70473L37.879 0.223693ZM18.1466 23.6339L0.215768 40.7427C-0.226685 42.5754 0.0567751 43.7202 0.654064 44.3118C1.25155 44.9035 2.40725 45.1752 4.21729 44.7379L20.9696 27.043L18.1466 23.6339Z" fill="#A9D6C6"/>
</svg>
