<svg width="37" height="45" viewBox="0 0 37 45" fill="none" xmlns="http://www.w3.org/2000/svg">
<rect x="5.47559" y="8.83969" width="26.0119" height="27.3219" fill="#D9D9D9" fill-opacity="0.68"/>
<rect x="5.47559" y="8.83969" width="26.0119" height="27.3219" fill="#D9D9D9" fill-opacity="0.68"/>
<rect x="5.47559" y="8.83969" width="26.0119" height="27.3219" fill="#F1CAC9"/>
<rect x="8.21484" y="13.6592" width="20.5357" height="0.803586" rx="0.401793" fill="#FAF9F6"/>
<rect x="10.9521" y="17.6777" width="15.0595" height="0.803586" rx="0.401793" fill="#FAF9F6"/>
<rect x="8.21484" y="21.6962" width="20.5357" height="0.803586" rx="0.401793" fill="#FAF9F6"/>
<rect x="8.89941" y="25.7147" width="19.1667" height="0.803586" rx="0.401793" fill="#FAF9F6"/>
<rect x="8.21484" y="29.7315" width="20.5357" height="0.803586" rx="0.401793" fill="#FAF9F6"/>
<rect x="2.7373" width="31.4881" height="8.03586" rx="4.01793" fill="#D9D9D9" fill-opacity="0.68"/>
<rect x="2.7373" width="31.4881" height="8.03586" rx="4.01793" fill="#D9D9D9" fill-opacity="0.68"/>
<rect x="2.7373" width="31.4881" height="8.03586" rx="4.01793" fill="#F1CAC9"/>
<path d="M0 3.61605C0 2.50653 0.899445 1.60709 2.00896 1.60709H2.05357V5.62501H2.00896C0.899444 5.62501 0 4.72557 0 3.61605V3.61605Z" fill="#D9D9D9" fill-opacity="0.68"/>
<path d="M0 3.61605C0 2.50653 0.899445 1.60709 2.00896 1.60709H2.05357V5.62501H2.00896C0.899444 5.62501 0 4.72557 0 3.61605V3.61605Z" fill="#D9D9D9" fill-opacity="0.68"/>
<path d="M0 3.61605C0 2.50653 0.899445 1.60709 2.00896 1.60709H2.05357V5.62501H2.00896C0.899444 5.62501 0 4.72557 0 3.61605V3.61605Z" fill="#F1CAC9"/>
<path d="M0 40.5802C0 39.4706 0.899445 38.5712 2.00896 38.5712H2.05357V42.5891H2.00896C0.899444 42.5891 0 41.6897 0 40.5802V40.5802Z" fill="#D9D9D9" fill-opacity="0.68"/>
<path d="M0 40.5802C0 39.4706 0.899445 38.5712 2.00896 38.5712H2.05357V42.5891H2.00896C0.899444 42.5891 0 41.6897 0 40.5802V40.5802Z" fill="#D9D9D9" fill-opacity="0.68"/>
<path d="M0 40.5802C0 39.4706 0.899445 38.5712 2.00896 38.5712H2.05357V42.5891H2.00896C0.899444 42.5891 0 41.6897 0 40.5802V40.5802Z" fill="#F1CAC9"/>
<path d="M36.9629 3.61662C36.9629 4.72614 36.0634 5.62558 34.9539 5.62558L34.9093 5.62558L34.9093 1.60765L34.9539 1.60765C36.0634 1.60765 36.9629 2.5071 36.9629 3.61662V3.61662Z" fill="#D9D9D9" fill-opacity="0.68"/>
<path d="M36.9629 3.61662C36.9629 4.72614 36.0634 5.62558 34.9539 5.62558L34.9093 5.62558L34.9093 1.60765L34.9539 1.60765C36.0634 1.60765 36.9629 2.5071 36.9629 3.61662V3.61662Z" fill="#D9D9D9" fill-opacity="0.68"/>
<path d="M36.9629 3.61662C36.9629 4.72614 36.0634 5.62558 34.9539 5.62558L34.9093 5.62558L34.9093 1.60765L34.9539 1.60765C36.0634 1.60765 36.9629 2.5071 36.9629 3.61662V3.61662Z" fill="#F1CAC9"/>
<path d="M36.9629 40.5791C36.9629 41.6886 36.0634 42.588 34.9539 42.588L34.9093 42.588L34.9093 38.5701L34.9539 38.5701C36.0634 38.5701 36.9629 39.4696 36.9629 40.5791V40.5791Z" fill="#D9D9D9" fill-opacity="0.68"/>
<path d="M36.9629 40.5791C36.9629 41.6886 36.0634 42.588 34.9539 42.588L34.9093 42.588L34.9093 38.5701L34.9539 38.5701C36.0634 38.5701 36.9629 39.4696 36.9629 40.5791V40.5791Z" fill="#D9D9D9" fill-opacity="0.68"/>
<path d="M36.9629 40.5791C36.9629 41.6886 36.0634 42.588 34.9539 42.588L34.9093 42.588L34.9093 38.5701L34.9539 38.5701C36.0634 38.5701 36.9629 39.4696 36.9629 40.5791V40.5791Z" fill="#F1CAC9"/>
<rect x="2.7373" y="36.9641" width="31.4881" height="8.03586" rx="4.01793" fill="#D9D9D9" fill-opacity="0.68"/>
<rect x="2.7373" y="36.9641" width="31.4881" height="8.03586" rx="4.01793" fill="#D9D9D9" fill-opacity="0.68"/>
<rect x="2.7373" y="36.9641" width="31.4881" height="8.03586" rx="4.01793" fill="#F1CAC9"/>
</svg>
