<svg width="42" height="45" viewBox="0 0 42 45" fill="none" xmlns="http://www.w3.org/2000/svg">
<path d="M41.5385 2.59615V32.8846C41.5385 33.7861 41.232 34.5883 40.619 35.2915C40.006 35.9946 39.2308 36.54 38.2933 36.9276C37.3558 37.3152 36.4228 37.6037 35.4943 37.793C34.5658 37.9823 33.6959 38.0769 32.8846 38.0769C32.0733 38.0769 31.2034 37.9823 30.2749 37.793C29.3465 37.6037 28.4135 37.3152 27.476 36.9276C26.5385 36.54 25.7632 35.9946 25.1502 35.2915C24.5373 34.5883 24.2308 33.7861 24.2308 32.8846C24.2308 31.9832 24.5373 31.1809 25.1502 30.4778C25.7632 29.7746 26.5385 29.2293 27.476 28.8416C28.4135 28.454 29.3465 28.1656 30.2749 27.9763C31.2034 27.787 32.0733 27.6923 32.8846 27.6923C34.7776 27.6923 36.5084 28.0439 38.0769 28.747V14.2248L17.3077 20.634V39.8077C17.3077 40.7091 17.0012 41.5114 16.3882 42.2145C15.7752 42.9177 15 43.463 14.0625 43.8507C13.125 44.2383 12.192 44.5267 11.2635 44.716C10.335 44.9053 9.46514 45 8.65385 45C7.84255 45 6.97266 44.9053 6.04417 44.716C5.11568 44.5267 4.18269 44.2383 3.24519 43.8507C2.30769 43.463 1.53245 42.9177 0.919471 42.2145C0.30649 41.5114 0 40.7091 0 39.8077C0 38.9062 0.30649 38.104 0.919471 37.4008C1.53245 36.6977 2.30769 36.1523 3.24519 35.7647C4.18269 35.3771 5.11568 35.0886 6.04417 34.8993C6.97266 34.71 7.84255 34.6154 8.65385 34.6154C10.5469 34.6154 12.2776 34.9669 13.8462 35.6701V9.51923C13.8462 8.96034 14.0174 8.45102 14.36 7.99129C14.7025 7.53155 15.1442 7.21154 15.6851 7.03125L38.1851 0.108173C38.4014 0.0360577 38.6538 0 38.9423 0C39.6635 0 40.2764 0.252404 40.7813 0.757212C41.2861 1.26202 41.5385 1.875 41.5385 2.59615Z" fill="#FFBCE4"/>
</svg>
