<svg width="45" height="45" viewBox="0 0 45 45" fill="none" xmlns="http://www.w3.org/2000/svg">
<path fill-rule="evenodd" clip-rule="evenodd" d="M44.9357 4.82143C44.9795 4.28684 45.0009 3.75066 45 3.21429V2.6802e-07H39.375C35.2016 -0.000695282 31.1406 1.35241 27.8016 3.85618C24.4627 6.35994 22.0261 9.87925 20.8575 13.8857C19.0563 11.5623 16.747 9.6822 14.1066 8.38957C11.4662 7.09695 8.56483 6.42614 5.625 6.42857H0V9.64286C0 14.7577 2.03188 19.6631 5.64865 23.2799C9.26543 26.8967 14.1708 28.9286 19.2857 28.9286H20.0893V42.5893C20.0893 43.2286 20.3433 43.8418 20.7954 44.2939C21.2475 44.746 21.8606 45 22.5 45C23.1394 45 23.7525 44.746 24.2046 44.2939C24.6567 43.8418 24.9107 43.2286 24.9107 42.5893V22.5H25.7143C30.5514 22.5007 35.2122 20.6836 38.7725 17.4091C42.3328 14.1346 44.5326 9.64176 44.9357 4.82143ZM24.9975 17.6786C25.3929 14.1422 27.0779 10.8757 29.7304 8.50375C32.3829 6.13176 35.8166 4.82075 39.375 4.82143H40.0918C39.6964 8.35776 38.0114 11.6243 35.3589 13.9963C32.7064 16.3682 29.2727 17.6793 25.7143 17.6786H24.9975ZM5.625 11.25C9.18337 11.2493 12.6171 12.5603 15.2696 14.9323C17.9221 17.3043 19.6071 20.5708 20.0025 24.1071H19.2857C15.7273 24.1078 12.2936 22.7968 9.64111 20.4248C6.98864 18.0528 5.30359 14.7863 4.90821 11.25H5.625Z" fill="#C7E1B3"/>
<path d="M10.5 24C6.5 22.8 4.5 14.5 4 10.5L9 9.5L18.5 15L21.5 25.5C19.5 25.5 14.5 25.2 10.5 24Z" fill="#C7E1B3"/>
<path d="M27.6881 7.74948C29.5061 3.98986 38.0181 3.32889 42.0468 3.46836L42.2427 8.56361L35.3083 17.0732L24.4658 18.3734C24.7824 16.3986 25.8701 11.5091 27.6881 7.74948Z" fill="#C7E1B3"/>
<path d="M19 22L12.5 18L7 13" stroke="#FAF9F6" stroke-linecap="round"/>
<path d="M26 17L33 11.5L40 5" stroke="#FAF9F6" stroke-linecap="round"/>
</svg>
