<svg width="45" height="45" viewBox="0 0 45 45" fill="none" xmlns="http://www.w3.org/2000/svg">
<path d="M18 45V36C18 34.8065 18.4741 33.6619 19.318 32.818C20.1619 31.9741 21.3065 31.5 22.5 31.5C23.6935 31.5 24.8381 31.9741 25.682 32.818C26.5259 33.6619 27 34.8065 27 36V45H36V22.5C35.9999 22.1118 35.8994 21.7301 35.7082 21.3922C35.517 21.0544 35.2415 20.7717 34.9087 20.5717L24.75 14.4765V9H29.25V4.5H24.75V0H20.25V4.5H15.75V9H20.25V14.4765L10.0913 20.5717C9.75845 20.7717 9.48305 21.0544 9.29183 21.3922C9.10061 21.7301 9.00007 22.1118 9 22.5V45H18ZM2.25 45H6.75V26.7345L1.24425 29.4885C0.87024 29.6748 0.555634 29.9618 0.33582 30.3172C0.116007 30.6725 -0.000293851 31.0822 5.57576e-07 31.5V42.75C5.57576e-07 43.3467 0.237053 43.919 0.65901 44.341C1.08097 44.7629 1.65326 45 2.25 45ZM43.7558 29.4862L38.25 26.7345V45H42.75C43.3467 45 43.919 44.7629 44.341 44.341C44.7629 43.919 45 43.3467 45 42.75V31.5C45 30.6472 44.5185 29.8687 43.7558 29.4862Z" fill="#BB9F85"/>
</svg>
