<svg width="45" height="45" viewBox="0 0 45 45" fill="none" xmlns="http://www.w3.org/2000/svg">
<path fill-rule="evenodd" clip-rule="evenodd" d="M16.6237 0.95356C18.6683 1.61746 20.6374 2.49414 22.4989 3.5692C24.3604 2.49414 26.3295 1.61746 28.3741 0.95356C33.4951 -0.664928 38.5961 -0.376807 41.9859 3.013C45.3757 6.40281 45.6638 11.5063 44.0453 16.6248C43.3813 18.6693 42.5047 20.6385 41.4297 22.5C42.5722 24.5118 43.4466 26.4836 44.0453 28.3752C45.6638 33.4937 45.3757 38.5972 41.9859 41.987C38.5986 45.3768 33.4926 45.6649 28.3741 44.0464C26.3295 43.3825 24.3604 42.5059 22.4989 41.4308C20.6374 42.5059 18.6683 43.3825 16.6237 44.0464C11.5052 45.6624 6.40171 45.3768 3.0119 41.987C-0.377905 38.5972 -0.663521 33.4937 0.952462 28.3752C1.55125 26.4811 2.42564 24.5118 3.5681 22.5C2.49304 20.6385 1.61636 18.6694 0.952462 16.6248C-0.663521 11.5038 -0.3754 6.40281 3.0119 3.013C6.40171 -0.376807 11.5052 -0.664928 16.6237 0.95356ZM38.2579 27.2828C36.7797 29.232 35.066 31.1912 33.1293 33.1304C31.299 34.9701 29.3452 36.6828 27.2817 38.2565C28.1811 38.6673 29.0505 39.0056 29.8848 39.2686C34.139 40.6115 36.94 39.9451 38.4433 38.4419C39.9465 36.9411 40.6129 34.1376 39.27 29.8859C38.9863 28.9975 38.6483 28.1273 38.2579 27.2803V27.2828ZM6.73994 27.2828C6.35062 28.1291 6.01343 28.9984 5.73026 29.8859C4.38737 34.1401 5.0538 36.9411 6.55704 38.4444C8.05778 39.9476 10.8613 40.6115 15.113 39.2686C15.9498 39.0056 16.8167 38.6673 17.7186 38.2565C15.6551 36.6828 13.7013 34.9701 11.871 33.1304C10.0304 31.3001 8.31444 29.3464 6.73994 27.2828ZM22.4989 9.47192C19.9568 11.2273 17.5847 13.217 15.4136 15.4147C13.2159 17.5858 11.2262 19.9579 9.47082 22.5C11.2247 25.0418 13.2126 27.4139 15.4086 29.5853C17.8213 31.998 20.209 33.9697 22.4989 35.5281C25.041 33.7727 27.4131 31.783 29.5842 29.5853C31.7811 27.4141 33.7699 25.042 35.5245 22.5C33.7707 19.9581 31.7828 17.586 29.5867 15.4147C27.4148 13.2169 25.0418 11.2273 22.4989 9.47192ZM22.4989 18.7419C23.4956 18.7419 24.4515 19.1378 25.1563 19.8426C25.8611 20.5474 26.257 21.5033 26.257 22.5C26.257 23.4967 25.8611 24.4526 25.1563 25.1574C24.4515 25.8622 23.4956 26.2581 22.4989 26.2581C21.5022 26.2581 20.5463 25.8622 19.8415 25.1574C19.1367 24.4526 18.7408 23.4967 18.7408 22.5C18.7408 21.5033 19.1367 20.5474 19.8415 19.8426C20.5463 19.1378 21.5022 18.7419 22.4989 18.7419ZM6.55454 6.55563C5.0513 8.05887 4.38737 10.8599 5.73026 15.1141C5.99333 15.9484 6.33156 16.8178 6.74244 17.7197C8.22063 15.7655 9.93181 13.8088 11.871 11.8696C13.7005 10.03 15.6534 8.31733 17.7161 6.74354C16.8699 6.35334 16.0005 6.01531 15.113 5.73136C10.8613 4.38846 8.05778 5.0549 6.55454 6.55563ZM29.8848 5.73136C29.0505 5.99443 28.1811 6.33265 27.2817 6.74354C29.2309 8.22173 31.1901 9.93291 33.1293 11.8696C34.9699 13.6998 36.6834 15.6536 38.2579 17.7172C38.6688 16.8178 39.0045 15.9484 39.2675 15.1141C40.6129 10.8599 39.9465 8.05887 38.4433 6.55563C36.94 5.05239 34.139 4.38846 29.8848 5.73136Z" fill="#FFD967"/>
</svg>
