<svg width="45" height="45" viewBox="0 0 45 45" fill="none" xmlns="http://www.w3.org/2000/svg">
<path d="M41.009 5.9794C41.9372 7.07627 42.7275 8.29127 43.3547 9.59908C42.8324 10.1223 42.212 10.5374 41.5292 10.8207C40.8463 11.104 40.1143 11.2499 39.375 11.25C38.37 11.2503 37.3833 10.9813 36.5175 10.471L41.009 5.9794ZM39.0206 3.98815L34.529 8.48252C33.8926 7.40843 33.6327 6.15266 33.7906 4.91418C33.9486 3.6757 34.5153 2.52533 35.4009 1.64534C36.7087 2.27252 37.9237 3.06284 39.0206 3.98815ZM45 16.875C45.0014 15.3643 44.7999 13.8602 44.4009 12.4031C42.9947 13.4438 41.2565 14.0625 39.375 14.0625C37.6221 14.0629 35.9126 13.5173 34.484 12.5016L31.5197 15.4688L42.2156 26.1647C43.9734 23.4985 45 20.3063 45 16.875ZM30.9375 5.62502C30.9375 3.74065 31.5534 2.00252 32.5969 0.599088C31.1398 0.200131 29.6357 -0.00135729 28.125 2.59545e-05C24.822 -0.0057804 21.5906 0.962751 18.8353 2.7844L29.5312 13.4803L32.4956 10.5131C31.4814 9.085 30.9369 7.37663 30.9375 5.62502ZM27.3009 19.6875C30.6143 23.3816 32.7646 27.9709 33.4828 32.8809C36.1463 31.9879 38.5448 30.444 40.4606 28.3894L29.5312 17.4572L27.3009 19.6875ZM27.5428 15.4688L25.3125 17.6963C21.6191 14.3834 17.031 12.2331 12.1219 11.5144C13.0153 8.85186 14.5592 6.45442 16.6134 4.5394L27.5428 15.4688ZM4.21875 14.0625C3.09987 14.0625 2.02681 14.507 1.23564 15.2982C0.444474 16.0893 0 17.1624 0 18.2813V22.5C0 28.4674 2.37053 34.1903 6.59009 38.4099C10.8097 42.6295 16.5326 45 22.5 45H26.7187C27.8376 45 28.9107 44.5555 29.7018 43.7644C30.493 42.9732 30.9375 41.9001 30.9375 40.7813V36.5625C30.9375 30.5951 28.567 24.8722 24.3474 20.6526C20.1278 16.433 14.4049 14.0625 8.43749 14.0625H4.21875ZM11.6606 25.7231C11.7912 25.5922 11.9464 25.4883 12.1173 25.4174C12.2881 25.3465 12.4713 25.31 12.6562 25.31C12.8412 25.31 13.0244 25.3465 13.1952 25.4174C13.3661 25.4883 13.5212 25.5922 13.6519 25.7231L19.2769 31.3481C19.5409 31.6122 19.6893 31.9703 19.6893 32.3438C19.6893 32.7172 19.5409 33.0753 19.2769 33.3394C19.0128 33.6034 18.6547 33.7518 18.2812 33.7518C17.9078 33.7518 17.5497 33.6034 17.2856 33.3394L11.6606 27.7144C11.5297 27.5838 11.4258 27.4286 11.3549 27.2577C11.284 27.0869 11.2475 26.9037 11.2475 26.7188C11.2475 26.5338 11.284 26.3506 11.3549 26.1798C11.4258 26.0089 11.5297 25.8538 11.6606 25.7231Z" fill="#F9B06B"/>
</svg>
