<svg width="38" height="45" viewBox="0 0 38 45" fill="none" xmlns="http://www.w3.org/2000/svg">
<path d="M18.9474 0C9.47368 0 0 1.18421 0 9.47368V31.9737C0 36.5447 3.71842 40.2632 8.28947 40.2632L4.73684 43.8158V45H10.0184L14.7553 40.2632H23.6842L28.4211 45H33.1579V43.8158L29.6053 40.2632C34.1763 40.2632 37.8947 36.5447 37.8947 31.9737V9.47368C37.8947 1.18421 29.4158 0 18.9474 0ZM8.28947 35.5263C6.32368 35.5263 4.73684 33.9395 4.73684 31.9737C4.73684 30.0079 6.32368 28.4211 8.28947 28.4211C10.2553 28.4211 11.8421 30.0079 11.8421 31.9737C11.8421 33.9395 10.2553 35.5263 8.28947 35.5263ZM16.5789 18.9474H4.73684V9.47368H16.5789V18.9474ZM21.3158 18.9474V9.47368H33.1579V18.9474H21.3158ZM29.6053 35.5263C27.6395 35.5263 26.0526 33.9395 26.0526 31.9737C26.0526 30.0079 27.6395 28.4211 29.6053 28.4211C31.5711 28.4211 33.1579 30.0079 33.1579 31.9737C33.1579 33.9395 31.5711 35.5263 29.6053 35.5263Z" fill="#9EA6F0"/>
</svg>
