<svg width="512" height="512" viewBox="0 0 512 512" fill="none" xmlns="http://www.w3.org/2000/svg">
<mask id="mask0_660_3158" style="mask-type:alpha" maskUnits="userSpaceOnUse" x="0" y="0" width="512" height="512">
<rect width="512" height="512" rx="55.1385" fill="#FAF9F6"/>
</mask>
<g mask="url(#mask0_660_3158)">
<rect width="512" height="512" rx="55.1385" fill="#FAF9F6"/>
<path d="M83.9775 378.931C83.1776 150.74 182.301 32.6186 231.962 0H263.959C212.964 48.5809 107.175 189.049 135.972 378.931C164.769 568.813 488.603 1161.78 646.92 1434.53L660.918 1878C468.938 1473.39 84.7774 607.123 83.9775 378.931Z" fill="#FFEED6"/>
<path d="M24.9835 166.563C92.9766 66.6253 191.3 14.5743 231.962 0H270.958C263.293 0 223.763 22.9024 106.975 122.84C-9.81281 222.778 76.9782 235.271 134.972 229.024C404.945 256.091 271.958 447.639 212.964 497.608C165.769 537.583 -38.6765 596.157 -135 620.448V470.541C-39.6764 446.251 163.369 387.676 212.964 347.701C262.559 307.725 181.634 285.239 134.972 278.993C69.9789 283.157 -43.0095 266.501 24.9835 166.563Z" fill="#B5F9BB"/>
<path d="M381.946 22.9024C396.345 11.243 329.285 2.77605 293.955 0H229.962C250.293 2.77605 297.555 9.57738 323.952 14.5743C356.948 20.8204 345.95 22.9024 247.96 47.8869C149.97 72.8714 237.961 185.302 275.957 208.204C306.354 226.526 588.592 346.313 725.911 403.916L820.902 328.962C814.902 331.738 735.51 311.473 465.938 208.204C196.365 104.935 258.959 58.2971 323.952 47.8869C337.284 44.4169 367.548 34.5619 381.946 22.9024Z" fill="#B5F5F9"/>
</g>
<path d="M256 435.706C256 435.706 389 307.813 389 210.779C389 174.987 374.988 140.66 350.045 115.351C325.103 90.042 291.274 75.8235 256 75.8235C220.726 75.8235 186.897 90.042 161.955 115.351C137.012 140.66 123 174.987 123 210.779C123 307.813 256 435.706 256 435.706ZM256 278.257C238.363 278.257 221.449 271.148 208.977 258.493C196.506 245.839 189.5 228.676 189.5 210.779C189.5 192.883 196.506 175.72 208.977 163.065C221.449 150.411 238.363 143.301 256 143.301C273.637 143.301 290.551 150.411 303.023 163.065C315.494 175.72 322.5 192.883 322.5 210.779C322.5 228.676 315.494 245.839 303.023 258.493C290.551 271.148 273.637 278.257 256 278.257Z" fill="#9747FF"/>
<circle cx="256" cy="208.823" r="70.4118" fill="#6B1ED1"/>
</svg>
