<?xml version="1.0" standalone="no"?>
<!DOCTYPE svg PUBLIC "-//W3C//DTD SVG 20010904//EN"
 "http://www.w3.org/TR/2001/REC-SVG-20010904/DTD/svg10.dtd">
<svg version="1.0" xmlns="http://www.w3.org/2000/svg"
 width="512.000000pt" height="512.000000pt" viewBox="0 0 512.000000 512.000000"
 preserveAspectRatio="xMidYMid meet">
<metadata>
Created by potrace 1.14, written by Peter Selinger 2001-2017
</metadata>
<g transform="translate(0.000000,512.000000) scale(0.100000,-0.100000)"
fill="#000000" stroke="none">
<path d="M2355 4345 c-288 -51 -522 -172 -725 -375 -243 -242 -377 -543 -397
-890 -24 -433 224 -992 730 -1642 125 -161 330 -398 470 -543 l125 -130 52 50
c29 28 111 115 184 195 591 652 961 1256 1067 1745 29 132 32 377 6 507 -108
542 -513 957 -1047 1073 -105 23 -362 28 -465 10z"/>
</g>
</svg>
