<svg width="54" height="59" viewBox="0 0 54 59" fill="none" xmlns="http://www.w3.org/2000/svg">
<circle cx="26.5" cy="26.5" r="26.5" fill="#EBD175"/>
<circle cx="26.7183" cy="26.7193" r="22.7192" fill="#101720"/>
<g clip-path="url(#clip0_272_3625)">
<path d="M16.879 15.96C13.6475 15.96 10.999 18.6004 10.999 21.8232C10.999 23.072 11.3977 24.2326 12.0728 25.1866L16.1617 32.2549C16.7343 33.0031 17.1151 32.8611 17.5913 32.2157L22.101 24.5409C22.192 24.3757 22.2634 24.2004 22.3259 24.0212C22.612 23.3238 22.7592 22.5771 22.759 21.8232C22.759 18.6004 20.1113 15.96 16.879 15.96ZM16.879 18.7074C18.6195 18.7074 20.0038 20.0881 20.0038 21.8235C20.0038 23.559 18.6195 24.9391 16.879 24.9391C15.1388 24.9391 13.7542 23.5587 13.7542 21.8235C13.7542 20.0881 15.1388 18.7074 16.879 18.7074ZM35.569 7.00003C33.6841 7.00003 32.139 8.54031 32.139 10.4205C32.139 11.1488 32.3714 11.8258 32.7654 12.3822L35.1507 16.5055C35.4847 16.9417 35.7068 16.8588 35.9845 16.4825L38.6151 12.0053C38.6683 11.9093 38.7101 11.8071 38.7462 11.7024C38.9132 11.2956 38.9991 10.8602 38.999 10.4205C38.999 8.54003 37.4545 7.00003 35.569 7.00003ZM35.569 8.60275C36.5843 8.60275 37.3918 9.40803 37.3918 10.4205C37.3918 11.4327 36.5843 12.2377 35.569 12.2377C34.554 12.2377 33.7462 11.4327 33.7462 10.4205C33.7462 9.40803 34.554 8.60275 35.569 8.60275Z" fill="#EBD175"/>
<path d="M16.879 15.96C13.6475 15.96 10.999 18.6004 10.999 21.8232C10.999 23.072 11.3977 24.2326 12.0728 25.1866L16.1617 32.2549C16.7343 33.0031 17.1151 32.8611 17.5913 32.2157L22.101 24.5409C22.192 24.3757 22.2634 24.2004 22.3259 24.0212C22.612 23.3238 22.7592 22.5771 22.759 21.8232C22.759 18.6004 20.1113 15.96 16.879 15.96ZM16.879 18.7074C18.6195 18.7074 20.0038 20.0881 20.0038 21.8235C20.0038 23.559 18.6195 24.9391 16.879 24.9391C15.1388 24.9391 13.7542 23.5587 13.7542 21.8235C13.7542 20.0881 15.1388 18.7074 16.879 18.7074ZM35.569 7.00003C33.6841 7.00003 32.139 8.54031 32.139 10.4205C32.139 11.1488 32.3714 11.8258 32.7654 12.3822L35.1507 16.5055C35.4847 16.9417 35.7068 16.8588 35.9845 16.4825L38.6151 12.0053C38.6683 11.9093 38.7101 11.8071 38.7462 11.7024C38.9132 11.2956 38.9991 10.8602 38.999 10.4205C38.999 8.54003 37.4545 7.00003 35.569 7.00003ZM35.569 8.60275C36.5843 8.60275 37.3918 9.40803 37.3918 10.4205C37.3918 11.4327 36.5843 12.2377 35.569 12.2377C34.554 12.2377 33.7462 11.4327 33.7462 10.4205C33.7462 9.40803 34.554 8.60275 35.569 8.60275Z" fill="black" fill-opacity="0.2"/>
<path fill-rule="evenodd" clip-rule="evenodd" d="M35.6973 17.4754C35.0681 17.4894 34.4373 17.516 33.8053 17.5627L33.9028 19.1117C34.5098 19.0677 35.1179 19.0394 35.7264 19.0269L35.6973 17.4754ZM32.3443 17.705C31.3727 17.8257 30.3927 17.9976 29.4239 18.2739L29.7887 19.775C30.669 19.5241 31.5813 19.362 32.5078 19.2469L32.3443 17.705ZM27.9732 18.7936C27.6829 18.9217 27.4019 19.0698 27.1321 19.2369L27.131 19.2383L27.1293 19.2388C26.7443 19.4813 26.3386 19.789 26.0073 20.2362C25.7674 20.5601 25.5711 20.9698 25.5252 21.4542L26.9518 21.6124C26.9624 21.4987 27.0206 21.3486 27.1254 21.2075H27.1259V21.2069C27.2948 20.9785 27.5479 20.771 27.8489 20.5811L27.85 20.5806C28.0646 20.4482 28.288 20.3307 28.5186 20.2289L27.9732 18.7936ZM27.2388 22.3034L26.3139 23.4892C26.5332 23.6897 26.763 23.8437 26.9851 23.9725L26.9879 23.9739L26.9907 23.9756C27.7276 24.3947 28.4876 24.6313 29.192 24.8559L29.5969 23.3669C28.8927 23.1423 28.2288 22.9256 27.6599 22.6025C27.4969 22.5078 27.3541 22.409 27.2388 22.3034ZM30.9726 23.7857L30.5772 25.2773L30.7642 25.3355L30.9938 25.4089C31.7538 25.6561 32.4818 25.9202 33.1325 26.2856L33.7927 24.908C33.0059 24.4659 32.1892 24.1769 31.4021 23.921L31.3998 23.9204L31.1641 23.8451L30.9726 23.7857ZM35.1353 25.9417L34.1209 27.0393C34.3606 27.2989 34.54 27.6111 34.6274 27.9337L34.628 27.9353L34.6285 27.9379C34.7327 28.3145 34.733 28.7574 34.6515 29.2049L36.0582 29.505C36.173 28.8733 36.1915 28.1798 36.0028 27.4952C35.8384 26.8898 35.5248 26.364 35.1353 25.9417ZM34.1604 30.1401C34.0053 30.3038 33.834 30.4513 33.6491 30.5802H33.6485C33.1445 30.9347 32.5599 31.2018 31.9388 31.4314L32.402 32.8997C33.0812 32.6486 33.7787 32.3406 34.4306 31.8819L34.4322 31.8805L34.4331 31.88C34.7008 31.6925 34.9484 31.4779 35.172 31.2396L34.1604 30.1401ZM30.6212 31.845C29.7215 32.0869 28.802 32.2711 27.8713 32.4274L28.0908 33.9615C29.0487 33.8005 30.0105 33.6081 30.9664 33.3511L30.6212 31.845ZM26.471 32.6391C25.5341 32.767 24.5922 32.8715 23.6475 32.9605L23.7712 34.5067C24.7305 34.4165 25.6915 34.3104 26.651 34.1791L26.471 32.6391ZM22.2276 33.0823C21.2809 33.1573 20.332 33.2184 19.3822 33.2699L19.4539 34.82C20.4129 34.7682 21.3728 34.7063 22.3323 34.6301L22.2276 33.0823ZM17.9551 33.3399C17.3858 33.3665 16.8152 33.3883 16.2432 33.4085L16.2902 34.96C16.8658 34.9402 17.4413 34.9172 18.0167 34.8911L17.9551 33.3399Z" fill="#EBD175"/>
</g>
<path d="M15.4259 2.10198L51.0003 36.4595L49.2218 40.7656L45.3839 45.4462L7.46895 7.53125C7.46895 7.53125 10.9325 4.91021 11.4474 4.81662C11.9623 4.72302 15.4259 2.10198 15.4259 2.10198Z" fill="#F6F4F4" fill-opacity="0.55"/>
<path d="M54 45C54 52.732 47.732 59 40 59C32.268 59 26 52.732 26 45C26 37.268 32.268 31 40 31C47.732 31 54 37.268 54 45Z" fill="#EBD175"/>
<circle cx="40" cy="45" r="11" fill="#101720"/>
<path d="M34.315 47.289C34.321 46.869 34.381 46.512 34.495 46.218C34.609 45.918 34.789 45.66 35.035 45.444C35.281 45.228 35.608 45.033 36.016 44.859L36.736 44.544C36.958 44.442 37.138 44.337 37.276 44.229C37.414 44.115 37.513 43.995 37.573 43.869C37.633 43.743 37.663 43.596 37.663 43.428C37.663 43.266 37.63 43.125 37.564 43.005C37.504 42.885 37.414 42.795 37.294 42.735C37.18 42.669 37.048 42.636 36.898 42.636C36.622 42.636 36.394 42.75 36.214 42.978C36.04 43.2 35.947 43.509 35.935 43.905L34.468 43.644C34.498 43.2 34.621 42.81 34.837 42.474C35.059 42.138 35.353 41.877 35.719 41.691C36.085 41.505 36.496 41.412 36.952 41.412C37.402 41.412 37.798 41.496 38.14 41.664C38.482 41.832 38.746 42.072 38.932 42.384C39.118 42.696 39.211 43.056 39.211 43.464C39.211 43.77 39.157 44.037 39.049 44.265C38.941 44.493 38.773 44.697 38.545 44.877C38.317 45.057 38.011 45.228 37.627 45.39L36.79 45.75C36.562 45.864 36.382 45.978 36.25 46.092C36.118 46.206 36.019 46.329 35.953 46.461C35.893 46.587 35.863 46.737 35.863 46.911H39.211V48H34.315V47.289ZM42.8573 48.18C42.2753 48.18 41.7623 48.039 41.3183 47.757C40.8803 47.475 40.5383 47.079 40.2923 46.569C40.0523 46.053 39.9323 45.462 39.9323 44.796C39.9323 44.13 40.0523 43.542 40.2923 43.032C40.5383 42.516 40.8803 42.117 41.3183 41.835C41.7623 41.553 42.2753 41.412 42.8573 41.412C43.4393 41.412 43.9493 41.553 44.3873 41.835C44.8313 42.117 45.1733 42.516 45.4133 43.032C45.6533 43.542 45.7733 44.13 45.7733 44.796C45.7733 45.462 45.6533 46.053 45.4133 46.569C45.1733 47.079 44.8313 47.475 44.3873 47.757C43.9493 48.039 43.4393 48.18 42.8573 48.18ZM42.8573 46.902C43.1393 46.902 43.3883 46.815 43.6043 46.641C43.8203 46.461 43.9853 46.212 44.0993 45.894C44.2193 45.576 44.2793 45.21 44.2793 44.796C44.2793 44.382 44.2193 44.016 44.0993 43.698C43.9853 43.374 43.8203 43.125 43.6043 42.951C43.3883 42.771 43.1393 42.681 42.8573 42.681C42.5753 42.681 42.3263 42.771 42.1103 42.951C41.8943 43.125 41.7263 43.374 41.6063 43.698C41.4863 44.016 41.4263 44.382 41.4263 44.796C41.4263 45.21 41.4863 45.576 41.6063 45.894C41.7263 46.212 41.8943 46.461 42.1103 46.641C42.3263 46.815 42.5753 46.902 42.8573 46.902Z" fill="#FAF9F6"/>
<defs>
<clipPath id="clip0_272_3625">
<rect width="28" height="28" fill="white" transform="translate(10.999 7.00003)"/>
</clipPath>
</defs>
</svg>
