<svg width="54" height="59" viewBox="0 0 54 59" fill="none" xmlns="http://www.w3.org/2000/svg">
<circle cx="26.5" cy="26.5" r="26.5" fill="#EBD175"/>
<circle cx="26.7183" cy="26.7193" r="22.7192" fill="#101720"/>
<g clip-path="url(#clip0_272_3638)">
<path d="M16.879 15.96C13.6475 15.96 10.999 18.6004 10.999 21.8232C10.999 23.072 11.3977 24.2326 12.0728 25.1866L16.1617 32.2549C16.7343 33.0031 17.1151 32.8611 17.5913 32.2157L22.101 24.5409C22.192 24.3757 22.2634 24.2004 22.3259 24.0212C22.612 23.3238 22.7592 22.5771 22.759 21.8232C22.759 18.6004 20.1113 15.96 16.879 15.96ZM16.879 18.7074C18.6195 18.7074 20.0038 20.0881 20.0038 21.8235C20.0038 23.559 18.6195 24.9391 16.879 24.9391C15.1388 24.9391 13.7542 23.5587 13.7542 21.8235C13.7542 20.0881 15.1388 18.7074 16.879 18.7074ZM35.569 7.00003C33.6841 7.00003 32.139 8.54031 32.139 10.4205C32.139 11.1488 32.3714 11.8258 32.7654 12.3822L35.1507 16.5055C35.4847 16.9417 35.7068 16.8588 35.9845 16.4825L38.6151 12.0053C38.6683 11.9093 38.7101 11.8071 38.7462 11.7024C38.9132 11.2956 38.9991 10.8602 38.999 10.4205C38.999 8.54003 37.4545 7.00003 35.569 7.00003ZM35.569 8.60275C36.5843 8.60275 37.3918 9.40803 37.3918 10.4205C37.3918 11.4327 36.5843 12.2377 35.569 12.2377C34.554 12.2377 33.7462 11.4327 33.7462 10.4205C33.7462 9.40803 34.554 8.60275 35.569 8.60275Z" fill="#EBD175"/>
<path d="M16.879 15.96C13.6475 15.96 10.999 18.6004 10.999 21.8232C10.999 23.072 11.3977 24.2326 12.0728 25.1866L16.1617 32.2549C16.7343 33.0031 17.1151 32.8611 17.5913 32.2157L22.101 24.5409C22.192 24.3757 22.2634 24.2004 22.3259 24.0212C22.612 23.3238 22.7592 22.5771 22.759 21.8232C22.759 18.6004 20.1113 15.96 16.879 15.96ZM16.879 18.7074C18.6195 18.7074 20.0038 20.0881 20.0038 21.8235C20.0038 23.559 18.6195 24.9391 16.879 24.9391C15.1388 24.9391 13.7542 23.5587 13.7542 21.8235C13.7542 20.0881 15.1388 18.7074 16.879 18.7074ZM35.569 7.00003C33.6841 7.00003 32.139 8.54031 32.139 10.4205C32.139 11.1488 32.3714 11.8258 32.7654 12.3822L35.1507 16.5055C35.4847 16.9417 35.7068 16.8588 35.9845 16.4825L38.6151 12.0053C38.6683 11.9093 38.7101 11.8071 38.7462 11.7024C38.9132 11.2956 38.9991 10.8602 38.999 10.4205C38.999 8.54003 37.4545 7.00003 35.569 7.00003ZM35.569 8.60275C36.5843 8.60275 37.3918 9.40803 37.3918 10.4205C37.3918 11.4327 36.5843 12.2377 35.569 12.2377C34.554 12.2377 33.7462 11.4327 33.7462 10.4205C33.7462 9.40803 34.554 8.60275 35.569 8.60275Z" fill="black" fill-opacity="0.2"/>
<path fill-rule="evenodd" clip-rule="evenodd" d="M35.6973 17.4754C35.0681 17.4894 34.4373 17.516 33.8053 17.5627L33.9028 19.1117C34.5098 19.0677 35.1179 19.0394 35.7264 19.0269L35.6973 17.4754ZM32.3443 17.705C31.3727 17.8257 30.3927 17.9976 29.4239 18.2739L29.7887 19.775C30.669 19.5241 31.5813 19.362 32.5078 19.2469L32.3443 17.705ZM27.9732 18.7936C27.6829 18.9217 27.4019 19.0698 27.1321 19.2369L27.131 19.2383L27.1293 19.2388C26.7443 19.4813 26.3386 19.789 26.0073 20.2362C25.7674 20.5601 25.5711 20.9698 25.5252 21.4542L26.9518 21.6124C26.9624 21.4987 27.0206 21.3486 27.1254 21.2075H27.1259V21.2069C27.2948 20.9785 27.5479 20.771 27.8489 20.5811L27.85 20.5806C28.0646 20.4482 28.288 20.3307 28.5186 20.2289L27.9732 18.7936ZM27.2388 22.3034L26.3139 23.4892C26.5332 23.6897 26.763 23.8437 26.9851 23.9725L26.9879 23.9739L26.9907 23.9756C27.7276 24.3947 28.4876 24.6313 29.192 24.8559L29.5969 23.3669C28.8927 23.1423 28.2288 22.9256 27.6599 22.6025C27.4969 22.5078 27.3541 22.409 27.2388 22.3034ZM30.9726 23.7857L30.5772 25.2773L30.7642 25.3355L30.9938 25.4089C31.7538 25.6561 32.4818 25.9202 33.1325 26.2856L33.7927 24.908C33.0059 24.4659 32.1892 24.1769 31.4021 23.921L31.3998 23.9204L31.1641 23.8451L30.9726 23.7857ZM35.1353 25.9417L34.1209 27.0393C34.3606 27.2989 34.54 27.6111 34.6274 27.9337L34.628 27.9353L34.6285 27.9379C34.7327 28.3145 34.733 28.7574 34.6515 29.2049L36.0582 29.505C36.173 28.8733 36.1915 28.1798 36.0028 27.4952C35.8384 26.8898 35.5248 26.364 35.1353 25.9417ZM34.1604 30.1401C34.0053 30.3038 33.834 30.4513 33.6491 30.5802H33.6485C33.1445 30.9347 32.5599 31.2018 31.9388 31.4314L32.402 32.8997C33.0812 32.6486 33.7787 32.3406 34.4306 31.8819L34.4322 31.8805L34.4331 31.88C34.7008 31.6925 34.9484 31.4779 35.172 31.2396L34.1604 30.1401ZM30.6212 31.845C29.7215 32.0869 28.802 32.2711 27.8713 32.4274L28.0908 33.9615C29.0487 33.8005 30.0105 33.6081 30.9664 33.3511L30.6212 31.845ZM26.471 32.6391C25.5341 32.767 24.5922 32.8715 23.6475 32.9605L23.7712 34.5067C24.7305 34.4165 25.6915 34.3104 26.651 34.1791L26.471 32.6391ZM22.2276 33.0823C21.2809 33.1573 20.332 33.2184 19.3822 33.2699L19.4539 34.82C20.4129 34.7682 21.3728 34.7063 22.3323 34.6301L22.2276 33.0823ZM17.9551 33.3399C17.3858 33.3665 16.8152 33.3883 16.2432 33.4085L16.2902 34.96C16.8658 34.9402 17.4413 34.9172 18.0167 34.8911L17.9551 33.3399Z" fill="#EBD175"/>
</g>
<path d="M15.4259 2.10198L51.0003 36.4595L49.2218 40.7656L45.3839 45.4462L7.46895 7.53125C7.46895 7.53125 10.9325 4.91021 11.4474 4.81662C11.9623 4.72302 15.4259 2.10198 15.4259 2.10198Z" fill="#F6F4F4" fill-opacity="0.55"/>
<path d="M54 45C54 52.732 47.732 59 40 59C32.268 59 26 52.732 26 45C26 37.268 32.268 31 40 31C47.732 31 54 37.268 54 45Z" fill="#EBD175"/>
<circle cx="40" cy="45" r="11" fill="#101720"/>
<path d="M36.835 48.18C36.349 48.18 35.914 48.087 35.53 47.901C35.146 47.715 34.837 47.457 34.603 47.127C34.369 46.797 34.228 46.419 34.18 45.993L35.62 45.66C35.638 45.918 35.698 46.146 35.8 46.344C35.902 46.536 36.037 46.686 36.205 46.794C36.373 46.896 36.565 46.947 36.781 46.947C36.973 46.947 37.144 46.911 37.294 46.839C37.444 46.761 37.561 46.653 37.645 46.515C37.729 46.377 37.771 46.218 37.771 46.038C37.771 45.858 37.729 45.696 37.645 45.552C37.561 45.408 37.447 45.297 37.303 45.219C37.165 45.135 37.015 45.09 36.853 45.084L36.43 45.066V44.292L36.745 44.274C36.913 44.262 37.06 44.22 37.186 44.148C37.312 44.07 37.408 43.968 37.474 43.842C37.54 43.71 37.573 43.557 37.573 43.383C37.573 43.227 37.54 43.089 37.474 42.969C37.414 42.849 37.327 42.756 37.213 42.69C37.105 42.618 36.979 42.582 36.835 42.582C36.661 42.582 36.505 42.633 36.367 42.735C36.229 42.831 36.118 42.972 36.034 43.158C35.956 43.338 35.914 43.545 35.908 43.779L34.432 43.545C34.456 43.149 34.573 42.792 34.783 42.474C34.993 42.156 35.275 41.907 35.629 41.727C35.983 41.541 36.379 41.448 36.817 41.448C37.243 41.448 37.618 41.523 37.942 41.673C38.272 41.817 38.527 42.024 38.707 42.294C38.893 42.558 38.986 42.861 38.986 43.203C38.986 43.509 38.911 43.788 38.761 44.04C38.611 44.286 38.401 44.463 38.131 44.571V44.589C38.521 44.727 38.821 44.937 39.031 45.219C39.247 45.501 39.355 45.831 39.355 46.209C39.355 46.587 39.247 46.929 39.031 47.235C38.815 47.535 38.515 47.769 38.131 47.937C37.747 48.099 37.315 48.18 36.835 48.18ZM42.5487 48.18C42.0627 48.18 41.6187 48.096 41.2167 47.928C40.8207 47.76 40.4997 47.523 40.2537 47.217C40.0077 46.911 39.8637 46.56 39.8217 46.164L41.3517 45.867C41.3757 46.077 41.4417 46.266 41.5497 46.434C41.6577 46.596 41.7957 46.722 41.9637 46.812C42.1377 46.902 42.3327 46.947 42.5487 46.947C42.7707 46.947 42.9657 46.902 43.1337 46.812C43.3077 46.722 43.4397 46.593 43.5297 46.425C43.6257 46.251 43.6737 46.053 43.6737 45.831C43.6737 45.615 43.6287 45.423 43.5387 45.255C43.4487 45.087 43.3197 44.961 43.1517 44.877C42.9897 44.787 42.8007 44.742 42.5847 44.742C42.4047 44.742 42.2307 44.784 42.0627 44.868C41.9007 44.946 41.7807 45.051 41.7027 45.183L40.4067 44.967L40.6137 41.592H44.6187V42.726H41.9277L41.8197 44.13C41.9577 44.016 42.1377 43.926 42.3597 43.86C42.5817 43.788 42.8157 43.752 43.0617 43.752C43.4817 43.752 43.8537 43.842 44.1777 44.022C44.5077 44.202 44.7627 44.451 44.9427 44.769C45.1227 45.087 45.2127 45.456 45.2127 45.876C45.2127 46.338 45.0987 46.743 44.8707 47.091C44.6487 47.439 44.3367 47.709 43.9347 47.901C43.5327 48.087 43.0707 48.18 42.5487 48.18Z" fill="#FAF9F6"/>
<defs>
<clipPath id="clip0_272_3638">
<rect width="28" height="28" fill="white" transform="translate(10.999 7.00003)"/>
</clipPath>
</defs>
</svg>
