<svg width="54" height="59" viewBox="0 0 54 59" fill="none" xmlns="http://www.w3.org/2000/svg">
<circle cx="26.5" cy="26.5" r="26.5" fill="#EBD175"/>
<circle cx="26.7183" cy="26.7193" r="22.7192" fill="#101720"/>
<g clip-path="url(#clip0_272_3612)">
<path d="M16.879 15.96C13.6475 15.96 10.999 18.6004 10.999 21.8232C10.999 23.072 11.3977 24.2326 12.0728 25.1866L16.1617 32.2549C16.7343 33.0031 17.1151 32.8611 17.5913 32.2157L22.101 24.5409C22.192 24.3757 22.2634 24.2004 22.3259 24.0212C22.612 23.3238 22.7592 22.5771 22.759 21.8232C22.759 18.6004 20.1113 15.96 16.879 15.96ZM16.879 18.7074C18.6195 18.7074 20.0038 20.0881 20.0038 21.8235C20.0038 23.559 18.6195 24.9391 16.879 24.9391C15.1388 24.9391 13.7542 23.5587 13.7542 21.8235C13.7542 20.0881 15.1388 18.7074 16.879 18.7074ZM35.569 7.00003C33.6841 7.00003 32.139 8.54031 32.139 10.4205C32.139 11.1488 32.3714 11.8258 32.7654 12.3822L35.1507 16.5055C35.4847 16.9417 35.7068 16.8588 35.9845 16.4825L38.6151 12.0053C38.6683 11.9093 38.7101 11.8071 38.7462 11.7024C38.9132 11.2956 38.9991 10.8602 38.999 10.4205C38.999 8.54003 37.4545 7.00003 35.569 7.00003ZM35.569 8.60275C36.5843 8.60275 37.3918 9.40803 37.3918 10.4205C37.3918 11.4327 36.5843 12.2377 35.569 12.2377C34.554 12.2377 33.7462 11.4327 33.7462 10.4205C33.7462 9.40803 34.554 8.60275 35.569 8.60275Z" fill="#EBD175"/>
<path d="M16.879 15.96C13.6475 15.96 10.999 18.6004 10.999 21.8232C10.999 23.072 11.3977 24.2326 12.0728 25.1866L16.1617 32.2549C16.7343 33.0031 17.1151 32.8611 17.5913 32.2157L22.101 24.5409C22.192 24.3757 22.2634 24.2004 22.3259 24.0212C22.612 23.3238 22.7592 22.5771 22.759 21.8232C22.759 18.6004 20.1113 15.96 16.879 15.96ZM16.879 18.7074C18.6195 18.7074 20.0038 20.0881 20.0038 21.8235C20.0038 23.559 18.6195 24.9391 16.879 24.9391C15.1388 24.9391 13.7542 23.5587 13.7542 21.8235C13.7542 20.0881 15.1388 18.7074 16.879 18.7074ZM35.569 7.00003C33.6841 7.00003 32.139 8.54031 32.139 10.4205C32.139 11.1488 32.3714 11.8258 32.7654 12.3822L35.1507 16.5055C35.4847 16.9417 35.7068 16.8588 35.9845 16.4825L38.6151 12.0053C38.6683 11.9093 38.7101 11.8071 38.7462 11.7024C38.9132 11.2956 38.9991 10.8602 38.999 10.4205C38.999 8.54003 37.4545 7.00003 35.569 7.00003ZM35.569 8.60275C36.5843 8.60275 37.3918 9.40803 37.3918 10.4205C37.3918 11.4327 36.5843 12.2377 35.569 12.2377C34.554 12.2377 33.7462 11.4327 33.7462 10.4205C33.7462 9.40803 34.554 8.60275 35.569 8.60275Z" fill="black" fill-opacity="0.2"/>
<path fill-rule="evenodd" clip-rule="evenodd" d="M35.6973 17.4754C35.0681 17.4894 34.4373 17.516 33.8053 17.5627L33.9028 19.1117C34.5098 19.0677 35.1179 19.0394 35.7264 19.0269L35.6973 17.4754ZM32.3443 17.705C31.3727 17.8257 30.3927 17.9976 29.4239 18.2739L29.7887 19.775C30.669 19.5241 31.5813 19.362 32.5078 19.2469L32.3443 17.705ZM27.9732 18.7936C27.6829 18.9217 27.4019 19.0698 27.1321 19.2369L27.131 19.2383L27.1293 19.2388C26.7443 19.4813 26.3386 19.789 26.0073 20.2362C25.7674 20.5601 25.5711 20.9698 25.5252 21.4542L26.9518 21.6124C26.9624 21.4987 27.0206 21.3486 27.1254 21.2075H27.1259V21.2069C27.2948 20.9785 27.5479 20.771 27.8489 20.5811L27.85 20.5806C28.0646 20.4482 28.288 20.3307 28.5186 20.2289L27.9732 18.7936ZM27.2388 22.3034L26.3139 23.4892C26.5332 23.6897 26.763 23.8437 26.9851 23.9725L26.9879 23.9739L26.9907 23.9756C27.7276 24.3947 28.4876 24.6313 29.192 24.8559L29.5969 23.3669C28.8927 23.1423 28.2288 22.9256 27.6599 22.6025C27.4969 22.5078 27.3541 22.409 27.2388 22.3034ZM30.9726 23.7857L30.5772 25.2773L30.7642 25.3355L30.9938 25.4089C31.7538 25.6561 32.4818 25.9202 33.1325 26.2856L33.7927 24.908C33.0059 24.4659 32.1892 24.1769 31.4021 23.921L31.3998 23.9204L31.1641 23.8451L30.9726 23.7857ZM35.1353 25.9417L34.1209 27.0393C34.3606 27.2989 34.54 27.6111 34.6274 27.9337L34.628 27.9353L34.6285 27.9379C34.7327 28.3145 34.733 28.7574 34.6515 29.2049L36.0582 29.505C36.173 28.8733 36.1915 28.1798 36.0028 27.4952C35.8384 26.8898 35.5248 26.364 35.1353 25.9417ZM34.1604 30.1401C34.0053 30.3038 33.834 30.4513 33.6491 30.5802H33.6485C33.1445 30.9347 32.5599 31.2018 31.9388 31.4314L32.402 32.8997C33.0812 32.6486 33.7787 32.3406 34.4306 31.8819L34.4322 31.8805L34.4331 31.88C34.7008 31.6925 34.9484 31.4779 35.172 31.2396L34.1604 30.1401ZM30.6212 31.845C29.7215 32.0869 28.802 32.2711 27.8713 32.4274L28.0908 33.9615C29.0487 33.8005 30.0105 33.6081 30.9664 33.3511L30.6212 31.845ZM26.471 32.6391C25.5341 32.767 24.5922 32.8715 23.6475 32.9605L23.7712 34.5067C24.7305 34.4165 25.6915 34.3104 26.651 34.1791L26.471 32.6391ZM22.2276 33.0823C21.2809 33.1573 20.332 33.2184 19.3822 33.2699L19.4539 34.82C20.4129 34.7682 21.3728 34.7063 22.3323 34.6301L22.2276 33.0823ZM17.9551 33.3399C17.3858 33.3665 16.8152 33.3883 16.2432 33.4085L16.2902 34.96C16.8658 34.9402 17.4413 34.9172 18.0167 34.8911L17.9551 33.3399Z" fill="#EBD175"/>
</g>
<path d="M15.4259 2.10198L51.0003 36.4595L49.2218 40.7656L45.3839 45.4462L7.46895 7.53125C7.46895 7.53125 10.9325 4.91021 11.4474 4.81662C11.9623 4.72302 15.4259 2.10198 15.4259 2.10198Z" fill="#F6F4F4" fill-opacity="0.55"/>
<path d="M54 45C54 52.732 47.732 59 40 59C32.268 59 26 52.732 26 45C26 37.268 32.268 31 40 31C47.732 31 54 37.268 54 45Z" fill="#EBD175"/>
<circle cx="40" cy="45" r="11" fill="#101720"/>
<path d="M34.198 48V46.812H35.854V43.221H35.845C35.743 43.401 35.596 43.557 35.404 43.689C35.218 43.821 34.999 43.935 34.747 44.031L34.279 42.762C34.669 42.66 35.002 42.51 35.278 42.312C35.56 42.114 35.785 41.874 35.953 41.592H37.357V46.812H38.698V48H34.198ZM41.9871 48.18C41.4051 48.18 40.8921 48.039 40.4481 47.757C40.0101 47.475 39.6681 47.079 39.4221 46.569C39.1821 46.053 39.0621 45.462 39.0621 44.796C39.0621 44.13 39.1821 43.542 39.4221 43.032C39.6681 42.516 40.0101 42.117 40.4481 41.835C40.8921 41.553 41.4051 41.412 41.9871 41.412C42.5691 41.412 43.0791 41.553 43.5171 41.835C43.9611 42.117 44.3031 42.516 44.5431 43.032C44.7831 43.542 44.9031 44.13 44.9031 44.796C44.9031 45.462 44.7831 46.053 44.5431 46.569C44.3031 47.079 43.9611 47.475 43.5171 47.757C43.0791 48.039 42.5691 48.18 41.9871 48.18ZM41.9871 46.902C42.2691 46.902 42.5181 46.815 42.7341 46.641C42.9501 46.461 43.1151 46.212 43.2291 45.894C43.3491 45.576 43.4091 45.21 43.4091 44.796C43.4091 44.382 43.3491 44.016 43.2291 43.698C43.1151 43.374 42.9501 43.125 42.7341 42.951C42.5181 42.771 42.2691 42.681 41.9871 42.681C41.7051 42.681 41.4561 42.771 41.2401 42.951C41.0241 43.125 40.8561 43.374 40.7361 43.698C40.6161 44.016 40.5561 44.382 40.5561 44.796C40.5561 45.21 40.6161 45.576 40.7361 45.894C40.8561 46.212 41.0241 46.461 41.2401 46.641C41.4561 46.815 41.7051 46.902 41.9871 46.902Z" fill="#FAF9F6"/>
<defs>
<clipPath id="clip0_272_3612">
<rect width="28" height="28" fill="white" transform="translate(10.999 7.00003)"/>
</clipPath>
</defs>
</svg>
