<svg width="54" height="59" viewBox="0 0 54 59" fill="none" xmlns="http://www.w3.org/2000/svg">
<circle cx="26.5" cy="26.5" r="26.5" fill="#C4C4C4"/>
<circle cx="26.7192" cy="26.7192" r="22.7192" fill="#101720"/>
<g clip-path="url(#clip0_1024_3388)">
<path d="M16.88 15.96C13.6485 15.96 11 18.6004 11 21.8232C11 23.072 11.3987 24.2326 12.0738 25.1866L16.1626 32.2549C16.7352 33.003 17.116 32.8611 17.5923 32.2157L22.102 24.5409C22.193 24.3757 22.2644 24.2004 22.3268 24.0212C22.613 23.3237 22.7602 22.5771 22.76 21.8232C22.76 18.6004 20.1123 15.96 16.88 15.96ZM16.88 18.7074C18.6205 18.7074 20.0048 20.088 20.0048 21.8235C20.0048 23.5589 18.6205 24.939 16.88 24.939C15.1398 24.939 13.7552 23.5586 13.7552 21.8235C13.7552 20.088 15.1398 18.7074 16.88 18.7074ZM35.57 7C33.685 7 32.14 8.54028 32.14 10.4205C32.14 11.1488 32.3724 11.8258 32.7664 12.3822L35.1517 16.5054C35.4857 16.9417 35.7078 16.8588 35.9855 16.4825L38.6161 12.0053C38.6693 11.9092 38.711 11.807 38.7472 11.7023C38.9142 11.2956 39 10.8602 39 10.4205C39 8.54 37.4555 7 35.57 7ZM35.57 8.60272C36.5853 8.60272 37.3928 9.408 37.3928 10.4205C37.3928 11.4327 36.5853 12.2377 35.57 12.2377C34.555 12.2377 33.7472 11.4327 33.7472 10.4205C33.7472 9.408 34.555 8.60272 35.57 8.60272Z" fill="#C4C4C4"/>
<path d="M16.88 15.96C13.6485 15.96 11 18.6004 11 21.8232C11 23.072 11.3987 24.2326 12.0738 25.1866L16.1626 32.2549C16.7352 33.003 17.116 32.8611 17.5923 32.2157L22.102 24.5409C22.193 24.3757 22.2644 24.2004 22.3268 24.0212C22.613 23.3237 22.7602 22.5771 22.76 21.8232C22.76 18.6004 20.1123 15.96 16.88 15.96ZM16.88 18.7074C18.6205 18.7074 20.0048 20.088 20.0048 21.8235C20.0048 23.5589 18.6205 24.939 16.88 24.939C15.1398 24.939 13.7552 23.5586 13.7552 21.8235C13.7552 20.088 15.1398 18.7074 16.88 18.7074ZM35.57 7C33.685 7 32.14 8.54028 32.14 10.4205C32.14 11.1488 32.3724 11.8258 32.7664 12.3822L35.1517 16.5054C35.4857 16.9417 35.7078 16.8588 35.9855 16.4825L38.6161 12.0053C38.6693 11.9092 38.711 11.807 38.7472 11.7023C38.9142 11.2956 39 10.8602 39 10.4205C39 8.54 37.4555 7 35.57 7ZM35.57 8.60272C36.5853 8.60272 37.3928 9.408 37.3928 10.4205C37.3928 11.4327 36.5853 12.2377 35.57 12.2377C34.555 12.2377 33.7472 11.4327 33.7472 10.4205C33.7472 9.408 34.555 8.60272 35.57 8.60272Z" fill="black" fill-opacity="0.2"/>
<path fill-rule="evenodd" clip-rule="evenodd" d="M35.6983 17.4756C35.0691 17.4896 34.4383 17.5162 33.8063 17.5629L33.9037 19.1119C34.5108 19.0679 35.1189 19.0397 35.7274 19.0271L35.6983 17.4756ZM32.3453 17.7052C31.3737 17.8259 30.3937 17.9978 29.4249 18.2741L29.7897 19.7752C30.67 19.5243 31.5823 19.3622 32.5088 19.2471L32.3453 17.7052ZM27.9742 18.7938C27.6839 18.922 27.4029 19.0701 27.1331 19.2371L27.1319 19.2385L27.1303 19.239C26.7453 19.4815 26.3395 19.7892 26.0083 20.2364C25.7683 20.5603 25.5721 20.97 25.5261 21.4544L26.9527 21.6126C26.9634 21.4989 27.0216 21.3488 27.1263 21.2077H27.1269V21.2071C27.2957 20.9787 27.5489 20.7712 27.8499 20.5813L27.851 20.5808C28.0655 20.4484 28.2889 20.3309 28.5196 20.2291L27.9742 18.7938ZM27.2397 22.3036L26.3149 23.4894C26.5341 23.6899 26.764 23.8439 26.9861 23.9727L26.9889 23.9741L26.9917 23.9758C27.7286 24.3949 28.4885 24.6315 29.193 24.8561L29.5979 23.3671C28.8937 23.1425 28.2298 22.9258 27.6609 22.6027C27.4979 22.508 27.3551 22.4092 27.2397 22.3036ZM30.9735 23.7859L30.5782 25.2775L30.7652 25.3357L30.9948 25.4091C31.7547 25.6563 32.4827 25.9204 33.1335 26.2858L33.7937 24.9082C33.0069 24.4661 32.1901 24.1771 31.4031 23.9212L31.4008 23.9206L31.1651 23.8453L30.9735 23.7859ZM35.1363 25.9419L34.1219 27.0395C34.3615 27.2991 34.541 27.6113 34.6284 27.9339L34.6289 27.9355L34.6295 27.9381C34.7337 28.3147 34.7339 28.7576 34.6525 29.2051L36.0592 29.5052C36.174 28.8735 36.1925 28.18 36.0037 27.4954C35.8394 26.89 35.5258 26.3642 35.1363 25.9419ZM34.1613 30.1403C34.0063 30.304 33.835 30.4515 33.6501 30.5804H33.6495C33.1455 30.9349 32.5609 31.202 31.9398 31.4316L32.4029 32.8999C33.0822 32.6488 33.7797 32.3408 34.4315 31.8821L34.4332 31.8807L34.4341 31.8802C34.7018 31.6927 34.9494 31.4782 35.173 31.2398L34.1613 30.1403ZM30.6221 31.8452C29.7225 32.0871 28.803 32.2713 27.8723 32.4276L28.0918 33.9617C29.0497 33.8007 30.0115 33.6083 30.9674 33.3513L30.6221 31.8452ZM26.472 32.6393C25.5351 32.7672 24.5932 32.8717 23.6485 32.9607L23.7722 34.5069C24.7315 34.4167 25.6925 34.3106 26.652 34.1793L26.472 32.6393ZM22.2286 33.0825C21.2819 33.1575 20.333 33.2186 19.3832 33.2701L19.4549 34.8202C20.4139 34.7684 21.3737 34.7065 22.3333 34.6303L22.2286 33.0825ZM17.9561 33.3401C17.3868 33.3667 16.8162 33.3885 16.2441 33.4087L16.2912 34.9602C16.8668 34.9404 17.4423 34.9174 18.0177 34.8913L17.9561 33.3401Z" fill="#C4C4C4"/>
</g>
<path d="M15.4249 2.10179L50.9993 36.4593L49.2209 40.7654L45.3829 45.446L7.46797 7.53105C7.46797 7.53105 10.9316 4.91001 11.4464 4.81642C11.9613 4.72283 15.4249 2.10179 15.4249 2.10179Z" fill="#F6F4F4" fill-opacity="0.55"/>
<path d="M54 45C54 52.732 47.732 59 40 59C32.268 59 26 52.732 26 45C26 37.268 32.268 31 40 31C47.732 31 54 37.268 54 45Z" fill="#C4C4C4"/>
<circle cx="40" cy="45" r="11" fill="#101720"/>
<path d="M39.827 46.029C39.827 45.747 39.854 45.51 39.908 45.318C39.962 45.126 40.046 44.958 40.16 44.814C40.274 44.67 40.43 44.532 40.628 44.4L40.907 44.211C41.087 44.085 41.222 43.959 41.312 43.833C41.402 43.707 41.447 43.56 41.447 43.392C41.447 43.236 41.408 43.098 41.33 42.978C41.252 42.852 41.141 42.756 40.997 42.69C40.859 42.624 40.706 42.591 40.538 42.591C40.34 42.591 40.166 42.636 40.016 42.726C39.866 42.816 39.743 42.945 39.647 43.113C39.557 43.281 39.5 43.485 39.476 43.725L38.09 43.437C38.126 43.017 38.252 42.651 38.468 42.339C38.684 42.027 38.972 41.787 39.332 41.619C39.698 41.451 40.109 41.367 40.565 41.367C41.033 41.367 41.447 41.448 41.807 41.61C42.167 41.766 42.446 41.991 42.644 42.285C42.848 42.573 42.95 42.906 42.95 43.284C42.95 43.632 42.863 43.929 42.689 44.175C42.515 44.421 42.272 44.634 41.96 44.814L41.654 44.994C41.51 45.078 41.396 45.165 41.312 45.255C41.228 45.345 41.165 45.453 41.123 45.579C41.087 45.699 41.069 45.849 41.069 46.029H39.827ZM40.448 48.108C40.208 48.108 40.01 48.033 39.854 47.883C39.704 47.733 39.629 47.544 39.629 47.316C39.629 47.166 39.662 47.031 39.728 46.911C39.8 46.791 39.899 46.698 40.025 46.632C40.151 46.56 40.292 46.524 40.448 46.524C40.682 46.524 40.874 46.599 41.024 46.749C41.18 46.893 41.258 47.082 41.258 47.316C41.258 47.466 41.222 47.601 41.15 47.721C41.084 47.841 40.988 47.934 40.862 48C40.742 48.072 40.604 48.108 40.448 48.108Z" fill="#FAF9F6"/>
<defs>
<clipPath id="clip0_1024_3388">
<rect width="28" height="28" fill="white" transform="translate(11 7)"/>
</clipPath>
</defs>
</svg>
